<svg id="visual" viewBox="0 0 900 600" width="900" height="600" xmlns="http://www.w3.org/2000/svg" xmlns:xlink="http://www.w3.org/1999/xlink" version="1.1"><defs><linearGradient id="grad1_0" x1="33.3%" y1="0%" x2="100%" y2="100%"><stop offset="20%" stop-color="#fbae3c" stop-opacity="1"></stop><stop offset="80%" stop-color="#fbae3c" stop-opacity="1"></stop></linearGradient></defs><defs><linearGradient id="grad1_1" x1="33.3%" y1="0%" x2="100%" y2="100%"><stop offset="20%" stop-color="#fbae3c" stop-opacity="1"></stop><stop offset="80%" stop-color="#ff86c6" stop-opacity="1"></stop></linearGradient></defs><defs><linearGradient id="grad1_2" x1="33.3%" y1="0%" x2="100%" y2="100%"><stop offset="20%" stop-color="#4facf7" stop-opacity="1"></stop><stop offset="80%" stop-color="#ff86c6" stop-opacity="1"></stop></linearGradient></defs><defs><linearGradient id="grad2_0" x1="0%" y1="0%" x2="66.7%" y2="100%"><stop offset="20%" stop-color="#fbae3c" stop-opacity="1"></stop><stop offset="80%" stop-color="#fbae3c" stop-opacity="1"></stop></linearGradient></defs><defs><linearGradient id="grad2_1" x1="0%" y1="0%" x2="66.7%" y2="100%"><stop offset="20%" stop-color="#ff86c6" stop-opacity="1"></stop><stop offset="80%" stop-color="#fbae3c" stop-opacity="1"></stop></linearGradient></defs><defs><linearGradient id="grad2_2" x1="0%" y1="0%" x2="66.7%" y2="100%"><stop offset="20%" stop-color="#ff86c6" stop-opacity="1"></stop><stop offset="80%" stop-color="#4facf7" stop-opacity="1"></stop></linearGradient></defs><g transform="translate(900, 0)"><path d="M0 513.8C-38.2 438.3 -76.3 362.8 -144.7 349.2C-213 335.6 -311.4 383.9 -363.3 363.3C-415.2 342.8 -420.6 253.4 -437.9 181.4C-455.2 109.4 -484.5 54.7 -513.8 0L0 0Z" fill="#be9bf6"></path><path d="M0 342.5C-25.4 292.2 -50.9 241.9 -96.4 232.8C-142 223.7 -207.6 255.9 -242.2 242.2C-276.8 228.5 -280.4 168.9 -291.9 120.9C-303.5 72.9 -323 36.5 -342.5 0L0 0Z" fill="#ff8b7e"></path><path d="M0 171.3C-12.7 146.1 -25.4 120.9 -48.2 116.4C-71 111.9 -103.8 128 -121.1 121.1C-138.4 114.3 -140.2 84.5 -146 60.5C-151.7 36.5 -161.5 18.2 -171.3 0L0 0Z" fill="#fbae3c"></path></g><g transform="translate(0, 600)"><path d="M0 -513.8C71 -496.7 141.9 -479.6 179.5 -433.3C217.1 -387 221.3 -311.4 273.7 -273.7C326 -235.9 426.6 -235.9 474.7 -196.6C522.7 -157.3 518.3 -78.7 513.8 0L0 0Z" fill="#be9bf6"></path><path d="M0 -342.5C47.3 -331.1 94.6 -319.7 119.7 -288.9C144.7 -258 147.5 -207.6 182.4 -182.4C217.4 -157.3 284.4 -157.3 316.5 -131.1C348.5 -104.9 345.5 -52.4 342.5 0L0 0Z" fill="#ff8b7e"></path><path d="M0 -171.3C23.7 -165.6 47.3 -159.9 59.8 -144.4C72.4 -129 73.8 -103.8 91.2 -91.2C108.7 -78.6 142.2 -78.6 158.2 -65.5C174.2 -52.4 172.8 -26.2 171.3 0L0 0Z" fill="#fbae3c"></path></g></svg>